<svg width="33" height="32" fill="none" xmlns="http://www.w3.org/2000/svg"><path d="M14.8 20.453c-.352.352-.996.352-1.348 0l-3.75-3.75c-.351-.351-.351-.996 0-1.348.352-.351.996-.351 1.348 0l3.105 3.106 6.797-6.855c.352-.352.996-.352 1.348 0 .351.351.351.996 0 1.347l-7.5 7.5zM31.03 16c0 8.32-6.738 15-15 15-8.32 0-15-6.68-15-15 0-8.262 6.68-15 15-15 8.262 0 15 6.738 15 15zm-15-13.125C8.765 2.875 2.905 8.793 2.905 16c0 7.266 5.86 13.125 13.125 13.125 7.207 0 13.125-5.86 13.125-13.125 0-7.207-5.918-13.125-13.125-13.125z" fill="#fff"/></svg>