<svg xmlns="http://www.w3.org/2000/svg" viewBox="0 0 646 144.1"><path d="M50.7 117.3l-3.3-18.9-16.3-10.3c-5.9-24.7 12.5-59.5 45.4-60.6 34.7-.3 47.7 22.3 48.4 40.3-8.7.3-47.9 1.7-47.9 1.7l3.3 16.2 1.9 9.9s29.3-.9 51.2-1.6l7.6-63C127 12.5 104.6-.6 75.4.4 27.8 2.1-9.1 43.8 2 98.4l23.6 15.9 5.9 30.8 96.1-3.4 3.3-27.2-80.2 2.8z" fill="#0057a8"/><path d="M211.3 34l-23-2.5v-8.8H239v8.8L216.8 34h-5.5zm55.2-11.2h16.7l24.3 85.1-9.5 17.3 29-102.4h10.4l-32.1 107.7h-16l-25.8-83.3 7-5.3-27 88.6h-15.9L195.4 22.8h29l21.7 85.1-10 17.3 30.4-102.4zm5 11.2l-20-2.5v-8.8h49v8.8L280.3 34h-8.8zm56.2 0l-15.3-2.5v-8.8H347v8.8L332 34h-4.3zm86.6 49.2c0 3.5-.3 6.1-.9 8.8h-64v-8.6H380c7.8 0 9.9-2.9 9.9-10.2 0-10.7-5.1-16.1-11.1-16.1-6.8 0-13 7.4-13 31 0 19.9 9.9 28.9 22.1 28.9 8.8 0 14.9-3.7 19.8-8.8l5.6 5.3c-6.7 12.8-18.5 19.1-34.3 19.1-23.8 0-40.7-15.6-40.7-41.9 0-27.3 21-42 42.1-42 21.6 0 33.9 14.7 33.9 34.5zm39.5-71.8l2.6 1.7-.6 22.9v59.9c0 11.4.2 22.9.5 34.3h-27c.3-11.4.5-22.9.5-34.3V27.3l-10.1-1.6v-6.9l34.1-7.4zm11.3 111.2v7.6h-44.7v-7.6l15.6-3.3h12.4l16.7 3.3zm8.7 2.6l.4-20.1h13.1L491 127l-9.2-3.2v-6.7c7.1 4.3 12.9 6.6 20.5 6.6 9.4 0 14.6-3.1 14.6-9.6 0-5.1-3-8.5-13.8-11.7l-8.8-2.5c-12.6-3.7-19.8-12.1-19.8-24.4 0-15.1 12.1-26.7 34.1-26.7 9.7 0 17.5 2.3 25.9 6.6l-1.1 17.9h-13.1L515.7 53l9.1 3.9v6c-5.8-3.7-9.4-5.3-16.7-5.3-7.3 0-12.2 3.2-12.2 9.2 0 4.5 2.4 7.7 13.7 11l8 2.3c15.5 4.6 21.7 13.1 21.7 25.3 0 17.3-13.9 27.2-37 27.2-10.7.1-19.9-2.4-28.5-7.4zm105-40.6c6.7-2 18.3-5 26-6.9v6.8c-7.7 1.9-16.5 4.3-21.3 6.5-7.4 3.1-12.2 8.6-12.2 16.3 0 8.2 4.3 12 9.8 12 3.1 0 5.7-1.3 10.9-5.1l6.6-4.9 1.7 2.4-6.9 7.5c-7.9 8.4-13 13.4-24.9 13.4-12.6 0-21.4-7.5-21.4-20.9.1-11.6 6.5-19.8 31.7-27.1zm12.4 32.2V75.9c0-14.5-2.8-18.8-13.2-18.8-4 0-8.2.5-15.3 2.4l11.3-6.4-1.2 11.3c-.4 10.9-5.7 15.3-12 15.3-5.8 0-9.7-2.8-11-8.2.9-13.6 14-22.8 37.6-22.8 21 0 29.3 8.9 29.3 30.8v36.7c0 3.2 1.3 4.8 3.7 4.8 1.7 0 3-.9 5-3.6l4.3 2.9c-3.9 8.9-9.8 12.3-19.7 12.3-11.2-.1-17.3-5.9-18.8-15.8z"/></svg>