<svg width="31" height="30" fill="none" xmlns="http://www.w3.org/2000/svg"><path d="M15.03 0c8.262 0 15 6.738 15 15 0 8.32-6.738 15-15 15-8.32 0-15-6.68-15-15 0-8.262 6.68-15 15-15zm0 28.125c7.207 0 13.125-5.86 13.125-13.125 0-7.207-5.918-13.125-13.125-13.125C7.765 1.875 1.905 7.793 1.905 15c0 7.266 5.86 13.125 13.125 13.125zm0-10.313a.925.925 0 01-.937-.937V7.5c0-.469.41-.938.937-.938.469 0 .938.47.938.938v9.375c0 .527-.469.938-.938.938zm0 2.344c.762 0 1.406.645 1.406 1.407 0 .82-.644 1.406-1.406 1.406-.82 0-1.406-.586-1.406-1.407 0-.761.586-1.406 1.406-1.406z" fill="#fff"/></svg>