<svg width="33" height="32" fill="none" xmlns="http://www.w3.org/2000/svg"><path d="M11.577 11.605c.352-.351.996-.351 1.348 0l3.105 3.106 3.047-3.106c.352-.351.996-.351 1.348 0 .351.352.351.997 0 1.348L17.319 16l3.106 3.105c.351.352.351.997 0 1.348-.352.352-.996.352-1.348 0l-3.047-3.105-3.105 3.105c-.352.352-.996.352-1.348 0-.351-.351-.351-.996 0-1.348L14.683 16l-3.106-3.047c-.351-.351-.351-.996 0-1.348zM31.03 16c0 8.32-6.738 15-15 15-8.32 0-15-6.68-15-15 0-8.262 6.68-15 15-15 8.262 0 15 6.738 15 15zm-15-13.125C8.765 2.875 2.905 8.793 2.905 16c0 7.266 5.86 13.125 13.125 13.125 7.207 0 13.125-5.86 13.125-13.125 0-7.207-5.918-13.125-13.125-13.125z" fill="#fff"/></svg>